<?xml version="1.0" encoding="UTF-8" standalone="no"?>
<svg
   xmlns:dc="http://purl.org/dc/elements/1.1/"
   xmlns:cc="http://creativecommons.org/ns#"
   xmlns:rdf="http://www.w3.org/1999/02/22-rdf-syntax-ns#"
   xmlns:svg="http://www.w3.org/2000/svg"
   xmlns="http://www.w3.org/2000/svg"
   xmlns:sodipodi="http://sodipodi.sourceforge.net/DTD/sodipodi-0.dtd"
   xmlns:inkscape="http://www.inkscape.org/namespaces/inkscape"
   version="1.2"
   width="2604.0339"
   height="422.4928"
   viewBox="8.5358 -0.024 417.95518 67.598848"
   id="svg2"
   inkscape:version="0.91 r13725"
   sodipodi:docname="music.svg">
  <metadata
     id="metadata116">
    <rdf:RDF>
      <cc:Work
         rdf:about="">
        <dc:format>image/svg+xml</dc:format>
        <dc:type
           rdf:resource="http://purl.org/dc/dcmitype/StillImage" />
        <dc:title />
      </cc:Work>
    </rdf:RDF>
  </metadata>
  <defs
     id="defs114" />
  <sodipodi:namedview
     pagecolor="#ffffff"
     bordercolor="#666666"
     borderopacity="1"
     objecttolerance="10"
     gridtolerance="10"
     guidetolerance="10"
     inkscape:pageopacity="0"
     inkscape:pageshadow="2"
     inkscape:window-width="1666"
     inkscape:window-height="1005"
     id="namedview112"
     showgrid="false"
     inkscape:zoom="0.60429304"
     inkscape:cx="656.57504"
     inkscape:cy="-138.3892"
     inkscape:window-x="0"
     inkscape:window-y="0"
     inkscape:window-maximized="0"
     inkscape:current-layer="svg2"
     fit-margin-top="0"
     fit-margin-left="0"
     fit-margin-right="0"
     fit-margin-bottom="0" />
  <path
     style="fill:#000000;stroke:#000000;stroke-width:0.77269;stroke-linecap:round;stroke-linejoin:round;stroke-opacity:1"
     d="m 8.9276476,44.405434 417.1714724,0"
     id="line4" />
  <path
     style="fill:#000000;stroke:#000000;stroke-width:0.77269;stroke-linecap:round;stroke-linejoin:round;stroke-opacity:1"
     d="m 8.9276476,36.678528 417.1714724,0"
     id="line6" />
  <path
     style="fill:#000000;stroke:#000000;stroke-width:0.77269;stroke-linecap:round;stroke-linejoin:round;stroke-opacity:1"
     d="m 8.9276476,28.95163 417.1714724,0"
     id="line8" />
  <path
     style="fill:#000000;stroke:#000000;stroke-width:0.77269;stroke-linecap:round;stroke-linejoin:round;stroke-opacity:1"
     d="m 8.9276476,21.224731 417.1714724,0"
     id="line10" />
  <path
     style="fill:#000000;stroke:#000000;stroke-width:0.77269;stroke-linecap:round;stroke-linejoin:round;stroke-opacity:1"
     d="m 8.9276476,13.497826 417.1714724,0"
     id="line12" />
  <path
     style="fill:#000000;stroke:#000000;stroke-opacity:1"
     d="m 340.08401,13.497826 1.46812,0 0,30.907598 -1.46812,0 z"
     id="rect14" />
  <path
     style="fill:#000000;stroke:#000000;stroke-opacity:1"
     d="m 205.99915,13.497826 1.46811,0 0,30.907598 -1.46811,0 z"
     id="rect16" />
  <path
     style="fill:#000000;stroke:#000000;stroke-opacity:1"
     d="m 425.0173,13.497826 1.46811,0 0,30.907598 -1.46811,0 z"
     id="rect18" />
  <path
     style="fill:#000000;stroke:#000000;stroke-opacity:1"
     d="m 320.5682,3.1955721 0.38635,0 c 0.17122,0 0.30907,0.1378479 0.30907,0.309076 l 0,23.6868119 c 0,0.171228 -0.13785,0.309076 -0.30907,0.309076 l -0.38635,0 c -0.17123,0 -0.30908,-0.137848 -0.30908,-0.309076 l 0,-23.6868119 c 0,-0.1712281 0.13785,-0.309076 0.30908,-0.309076 z"
     id="rect20" />
  <path
     d="m 298.45071,28.549845 c 1.73083,0 3.36893,0.896323 3.36893,2.812588 0,2.225354 -1.73083,3.739821 -3.18348,4.605235 -1.11267,0.649073 -2.34897,1.112683 -3.61618,1.112683 -1.73083,0 -3.36894,-0.89632 -3.36894,-2.812603 0,-2.225337 1.73083,-3.73982 3.18348,-4.605234 1.11267,-0.649053 2.34897,-1.112669 3.61619,-1.112669 z"
     id="path22"
     style="fill:#000000;stroke:#000000;stroke-opacity:1"
     inkscape:connector-curvature="0" />
  <path
     style="fill:#000000;stroke:#000000;stroke-opacity:1"
     d="m 291.96014,34.266228 0.38634,0 c 0.17123,0 0.30908,0.137848 0.30908,0.309076 l 0,18.774821 c 0,0.171228 -0.13785,0.309076 -0.30908,0.309076 l -0.38634,0 c -0.17123,0 -0.30908,-0.137848 -0.30908,-0.309076 l 0,-18.774821 c 0,-0.171228 0.13785,-0.309076 0.30908,-0.309076 z"
     id="rect24" />
  <path
     d="m 317.89313,24.686406 c 1.73083,0 3.36894,0.896307 3.36894,2.812588 0,2.225337 -1.73083,3.739821 -3.18348,4.605235 -1.11269,0.649052 -2.34899,1.112668 -3.61619,1.112668 -1.73083,0 -3.36893,-0.896323 -3.36893,-2.812588 0,-2.225353 1.73081,-3.73982 3.18348,-4.605234 1.11267,-0.649069 2.34897,-1.112669 3.61618,-1.112669 z"
     id="path26"
     style="fill:#000000;stroke:#000000;stroke-opacity:1"
     inkscape:connector-curvature="0" />
  <path
     d="m 317.89313,32.413301 c 1.73083,0 3.36894,0.896323 3.36894,2.812588 0,2.225352 -1.73083,3.739822 -3.18348,4.605232 -1.11269,0.64905 -2.34899,1.11267 -3.61619,1.11267 -1.73083,0 -3.36893,-0.89632 -3.36893,-2.81259 0,-2.225351 1.73081,-3.739818 3.18348,-4.605232 1.11267,-0.649052 2.34897,-1.112668 3.61618,-1.112668 z"
     id="path28"
     style="fill:#000000;stroke:#000000;stroke-opacity:1"
     inkscape:connector-curvature="0" />
  <path
     style="fill:#000000;stroke:#000000;stroke-opacity:1"
     d="m 311.40255,38.129677 0.38635,0 c 0.17122,0 0.30907,0.137848 0.30907,0.309076 l 0,21.111435 c 0,0.171228 -0.13785,0.309076 -0.30907,0.309076 l -0.38635,0 c -0.17123,0 -0.30907,-0.137848 -0.30907,-0.309076 l 0,-21.111435 c 0,-0.171228 0.13784,-0.309076 0.30907,-0.309076 z"
     id="rect30" />
  <path
     d="m 366.35548,30.806107 c 0,-0.741778 -0.64905,-1.267212 -1.29812,-1.267212 -0.12367,0 -0.24726,0 -0.37089,0.03096 -0.95814,0.278163 -2.37988,1.236304 -3.52346,1.978083 -1.14359,0.741779 -2.59624,1.638102 -3.2144,2.41079 -0.21635,0.247254 -0.33998,0.556342 -0.33998,0.865414 0,0.741779 0.64906,1.267209 1.29812,1.267209 0.12367,0 0.24727,0 0.37089,-0.031 0.95814,-0.278158 2.41079,-1.236298 3.55438,-1.978077 1.14358,-0.741779 2.59623,-1.638102 3.21439,-2.41079 0.21634,-0.247271 0.30907,-0.556343 0.30907,-0.865415 z m -1.57629,-2.225353 c 1.45265,0 2.56534,0.649069 2.56534,2.225353 0,0.587235 -0.12367,1.143578 -0.30907,1.730829 -0.37091,1.174486 -0.98905,2.287155 -2.00901,2.967116 -1.66901,1.112689 -3.49255,1.576299 -5.81063,1.576299 -1.45265,0 -2.59623,-0.67998 -2.59623,-2.25626 0,-0.587252 0.15446,-1.143578 0.33998,-1.730829 0.37089,-1.174486 0.95814,-2.287155 1.97809,-2.967132 1.66901,-1.112669 3.52347,-1.545376 5.84153,-1.545376 z"
     id="path32"
     style="fill:#000000;stroke:#000000;stroke-opacity:1"
     inkscape:connector-curvature="0" />
  <path
     d="m 279.0083,20.822951 c 1.73081,0 3.36891,0.896323 3.36891,2.812588 0,2.225353 -1.73081,3.73982 -3.18348,4.605234 -1.11267,0.649053 -2.34897,1.112669 -3.61618,1.112669 -1.73083,0 -3.36893,-0.896323 -3.36893,-2.812588 0,-2.225354 1.73083,-3.73982 3.18347,-4.605235 1.11269,-0.649052 2.34899,-1.112668 3.61621,-1.112668 z"
     id="path34"
     style="fill:#000000;stroke:#000000;stroke-opacity:1"
     inkscape:connector-curvature="0" />
  <path
     d="m 250.29436,32.413301 c 1.73082,0 3.36893,0.896323 3.36893,2.812588 0,2.225352 -1.73083,3.739822 -3.18348,4.605232 -1.11269,0.64905 -2.34899,1.11267 -3.6162,1.11267 -1.73081,0 -3.36893,-0.89632 -3.36893,-2.81259 0,-2.225351 1.73083,-3.739818 3.18349,-4.605232 1.11267,-0.649052 2.34897,-1.112668 3.61619,-1.112668 z"
     id="path36"
     style="fill:#000000;stroke:#000000;stroke-opacity:1"
     inkscape:connector-curvature="0" />
  <path
     style="fill:#000000;stroke:#000000;stroke-opacity:1"
     d="m 252.96864,3.1955721 0.38634,0 c 0.17123,0 0.30908,0.1378479 0.30908,0.309076 l 0,23.6868119 c 0,0.171228 -0.13785,0.309076 -0.30908,0.309076 l -0.38634,0 c -0.17123,0 -0.30908,-0.137848 -0.30908,-0.309076 l 0,-23.6868119 c 0,-0.1712281 0.13785,-0.309076 0.30908,-0.309076 z"
     id="rect38" />
  <path
     style="fill:#000000;stroke:#000000;stroke-opacity:1"
     d="m 243.80377,38.129677 0.38634,0 c 0.17123,0 0.30908,0.137848 0.30908,0.309076 l 0,21.111435 c 0,0.171228 -0.13785,0.309076 -0.30908,0.309076 l -0.38634,0 c -0.17123,0 -0.30908,-0.137848 -0.30908,-0.309076 l 0,-21.111435 c 0,-0.171228 0.13785,-0.309076 0.30908,-0.309076 z"
     id="rect40" />
  <path
     d="m 279.0083,32.413301 c 1.73081,0 3.36891,0.896323 3.36891,2.812588 0,2.225352 -1.73081,3.739822 -3.18348,4.605232 -1.11267,0.64905 -2.34897,1.11267 -3.61618,1.11267 -1.73083,0 -3.36893,-0.89632 -3.36893,-2.81259 0,-2.225351 1.73083,-3.739818 3.18347,-4.605232 1.11269,-0.649052 2.34899,-1.112668 3.61621,-1.112668 z"
     id="path42"
     style="fill:#000000;stroke:#000000;stroke-opacity:1"
     inkscape:connector-curvature="0" />
  <path
     style="fill:#000000;stroke:#000000;stroke-opacity:1"
     d="m 281.68331,0.61945373 0.38635,0 c 0.17123,0 0.30907,0.13784789 0.30907,0.30907598 l 0,22.39951029 c 0,0.171228 -0.13784,0.309076 -0.30907,0.309076 l -0.38635,0 c -0.17123,0 -0.30907,-0.137848 -0.30907,-0.309076 l 0,-22.39951029 c 0,-0.17122809 0.13784,-0.30907598 0.30907,-0.30907598 z"
     id="rect44" />
  <path
     style="fill:#000000;stroke:#000000;stroke-opacity:1"
     d="m 272.51769,38.129677 0.38635,0 c 0.17123,0 0.30908,0.137848 0.30908,0.309076 l 0,17.189261 c 0,0.171228 -0.13785,0.309076 -0.30908,0.309076 l -0.38635,0 c -0.17122,0 -0.30907,-0.137848 -0.30907,-0.309076 l 0,-17.189261 c 0,-0.171228 0.13785,-0.309076 0.30907,-0.309076 z"
     id="rect46" />
  <path
     d="m 370.83708,32.815099 c 0,-0.958141 0.77269,-1.730829 1.73083,-1.730829 0.95814,0 1.73082,0.772688 1.73082,1.730829 0,0.958141 -0.77268,1.730829 -1.73082,1.730829 -0.95814,0 -1.73083,-0.772688 -1.73083,-1.730829 z"
     id="path48"
     style="fill:#000000;stroke:#000000;stroke-opacity:1"
     inkscape:connector-curvature="0" />
  <path
     d="m 398.42134,32.536936 c 0,-0.865414 0.33998,-1.298121 1.2363,-1.298121 1.01996,0 2.41079,0.401798 3.678,0.958124 l -4.0798,-4.883397 c -0.21634,-0.278163 -0.30907,-0.525434 -0.30907,-0.772688 0,-1.050851 1.54538,-2.039901 2.68896,-3.059859 0.7727,-0.679961 1.14359,-1.607193 1.14359,-2.565318 0,-0.741795 -0.24727,-1.514483 -0.77269,-2.132627 l -1.08177,-1.298121 c -0.0927,-0.09271 -0.12367,-0.216362 -0.12367,-0.309072 0,-0.278179 0.27818,-0.463616 0.52543,-0.463616 0.12367,0 0.24727,0.03096 0.33998,0.154627 l 4.66705,5.563358 c 0.21637,0.278163 0.30908,0.525434 0.30908,0.772688 0,1.050867 -1.54538,2.039901 -2.68896,3.059859 -0.77269,0.679961 -1.14358,1.607193 -1.14358,2.565318 0,0.741795 0.21635,1.514483 0.74178,2.132627 l 2.59625,3.059858 c 0.0927,0.09271 0.12366,0.216346 0.12366,0.309072 0,0.27818 -0.24725,0.494525 -0.49452,0.494525 -0.12367,0 -0.27816,-0.06175 -0.37089,-0.185453 -0.55633,-0.649052 -1.94717,-1.174486 -2.99802,-1.174486 -1.26722,0 -1.63811,0.803597 -1.63811,2.070809 0,1.081778 0.33998,2.287168 0.8654,2.905318 0.15446,0.18545 0,0.4018 -0.18543,0.4018 -0.0618,0 -0.12367,0 -0.18546,-0.0618 -1.39083,-1.66901 -2.84349,-4.574322 -2.84349,-6.243317 z"
     id="path50"
     style="fill:#000000;stroke:#000000;stroke-opacity:1"
     inkscape:connector-curvature="0" />
  <path
     transform="matrix(7.7268997,0,0,7.7268997,272.20862,55.995801)"
     style="fill:#000000;stroke:#000000;stroke-width:0.08;stroke-linecap:round;stroke-linejoin:round;stroke-opacity:1"
     d="m 2.6062,-0.51 0,0.4 -2.5662,0.31 0,-0.4 z"
     id="polygon52" />
  <path
     d="m 273.1053,61.654901 c 5.79006,4.36068 14.81686,3.30326 19.44227,-2.27766 -4.7333,4.65994 -13.7601,5.71745 -19.44227,2.27766 z"
     id="path54"
     style="fill:#000000;stroke:#000000;stroke-width:0.61815196;stroke-linecap:round;stroke-linejoin:round;stroke-opacity:1"
     inkscape:connector-curvature="0" />
  <path
     style="fill:#000000;stroke:#000000;stroke-opacity:1"
     d="m 366.66454,5.7709279 0.38635,0 c 0.17123,0 0.30908,0.1378479 0.30908,0.309076 l 0,24.4061861 c 0,0.171228 -0.13785,0.309076 -0.30908,0.309076 l -0.38635,0 c -0.17122,0 -0.30907,-0.137848 -0.30907,-0.309076 l 0,-24.4061861 c 0,-0.1712281 0.13785,-0.309076 0.30907,-0.309076 z"
     id="rect56" />
  <path
     d="m 370.83708,40.541991 c 0,-0.95814 0.77269,-1.73083 1.73083,-1.73083 0.95814,0 1.73082,0.77269 1.73082,1.73083 0,0.95814 -0.77268,1.73083 -1.73082,1.73083 -0.95814,0 -1.73083,-0.77269 -1.73083,-1.73083 z"
     id="path58"
     style="fill:#000000;stroke:#000000;stroke-opacity:1"
     inkscape:connector-curvature="0" />
  <path
     style="fill:#000000;stroke:#000000;stroke-opacity:1"
     d="m 356.92864,42.561768 0.38635,0 c 0.17123,0 0.30907,0.137847 0.30907,0.309076 l 0,19.25466 c 0,0.171228 -0.13784,0.309076 -0.30907,0.309076 l -0.38635,0 c -0.17122,0 -0.30907,-0.137848 -0.30907,-0.309076 l 0,-19.25466 c 0,-0.171229 0.13785,-0.309076 0.30907,-0.309076 z"
     id="rect60" />
  <path
     d="m 366.35548,38.533001 c 0,-0.74178 -0.64905,-1.26721 -1.29812,-1.26721 -0.12367,0 -0.24726,0 -0.37089,0.031 -0.95814,0.27816 -2.37988,1.2363 -3.52346,1.97808 -1.14359,0.74178 -2.59624,1.6381 -3.2144,2.41079 -0.21635,0.24727 -0.33998,0.55634 -0.33998,0.86541 0,0.7418 0.64906,1.26722 1.29812,1.26722 0.12367,0 0.24727,0 0.37089,-0.031 0.95814,-0.27817 2.41079,-1.23631 3.55438,-1.97808 1.14358,-0.74178 2.59623,-1.63811 3.21439,-2.41079 0.21634,-0.24726 0.30907,-0.55635 0.30907,-0.86542 z m -1.57629,-2.22535 c 1.45265,0 2.56534,0.64907 2.56534,2.22535 0,0.58725 -0.12367,1.14358 -0.30907,1.73083 -0.37091,1.17449 -0.98905,2.28715 -2.00901,2.96713 -1.66901,1.11267 -3.49255,1.57629 -5.81063,1.57629 -1.45265,0 -2.59623,-0.67997 -2.59623,-2.25627 0,-0.58723 0.15446,-1.14357 0.33998,-1.73081 0.37089,-1.1745 0.95814,-2.28717 1.97809,-2.96713 1.66901,-1.11269 3.52347,-1.54539 5.84153,-1.54539 z"
     id="path62"
     style="fill:#000000;stroke:#000000;stroke-opacity:1"
     inkscape:connector-curvature="0" />
  <path
     d="m 352.09162,50.185171 c 0,0.30907 -0.24725,0.58723 -0.55634,0.58723 -0.30907,0 -0.58724,-0.27816 -0.58724,-0.58723 l 0,-4.4816 -2.56533,0.95812 0,4.88342 c 0,0.30907 -0.27816,0.58723 -0.58723,0.58723 -0.30909,0 -0.55635,-0.27816 -0.55635,-0.58723 l 0,-4.48162 -0.98905,0.37091 c -0.0618,0.031 -0.15446,0.031 -0.21634,0.031 -0.33998,0 -0.61816,-0.27817 -0.61816,-0.61815 l 0,-1.85446 c 0,-0.24726 0.15462,-0.49451 0.4018,-0.58724 l 1.42175,-0.49452 0,-4.94522 -0.98905,0.33998 c -0.0618,0.031 -0.15446,0.031 -0.21634,0.031 -0.33998,0 -0.61816,-0.27816 -0.61816,-0.61814 l 0,-1.85446 c 0,-0.24726 0.15462,-0.46362 0.4018,-0.55635 l 1.42175,-0.525414 0,-4.883414 c 0,-0.309072 0.24726,-0.587235 0.55635,-0.587235 0.30907,0 0.58723,0.278163 0.58723,0.587235 l 0,4.481615 2.56533,-0.95814 0,-4.883398 c 0,-0.309072 0.27817,-0.587251 0.58724,-0.587251 0.30909,0 0.55634,0.278179 0.55634,0.587251 l 0,4.481599 0.98905,-0.370889 c 0.0617,-0.03096 0.15446,-0.03096 0.21635,-0.03096 0.33998,0 0.61816,0.278163 0.61816,0.618143 l 0,1.854468 c 0,0.24725 -0.15463,0.49452 -0.4018,0.58725 l -1.42176,0.49451 0,4.94521 0.98905,-0.33998 c 0.0617,-0.031 0.15446,-0.031 0.21635,-0.031 0.33998,0 0.61816,0.27818 0.61816,0.61816 l 0,1.85445 c 0,0.24727 -0.15463,0.46362 -0.4018,0.55634 l -1.42176,0.52544 0,4.88339 z m -3.70891,-11.65217 0,4.94522 2.56533,-0.92724 0,-4.94521 z"
     id="path64"
     style="fill:#000000;stroke:#000000;stroke-opacity:1"
     inkscape:connector-curvature="0" />
  <path
     d="m 147.75067,44.003651 c 1.73083,0 3.36893,0.89632 3.36893,2.81259 0,2.22535 -1.73083,3.73982 -3.18349,4.60523 -1.11267,0.64905 -2.34897,1.11267 -3.61618,1.11267 -1.73083,0 -3.36893,-0.89632 -3.36893,-2.81259 0,-2.22535 1.73082,-3.73982 3.18348,-4.60523 1.11267,-0.64905 2.34898,-1.11267 3.61619,-1.11267 z"
     id="path66"
     style="fill:#000000;stroke:#000000;stroke-opacity:1"
     inkscape:connector-curvature="0" />
  <path
     d="m 119.03597,32.413301 c 1.73082,0 3.36892,0.896323 3.36892,2.812588 0,2.225352 -1.73082,3.739822 -3.18348,4.605232 -1.11267,0.64905 -2.34898,1.11267 -3.61619,1.11267 -1.73082,0 -3.36893,-0.89632 -3.36893,-2.81259 0,-2.225351 1.73083,-3.739818 3.18349,-4.605232 1.11267,-0.649052 2.34897,-1.112668 3.61619,-1.112668 z"
     id="path68"
     style="fill:#000000;stroke:#000000;stroke-opacity:1"
     inkscape:connector-curvature="0" />
  <path
     style="fill:#000000;stroke:#000000;stroke-opacity:1"
     d="m 121.71102,9.6343842 0.38634,0 c 0.17123,0 0.30908,0.1378478 0.30908,0.3090759 l 0,24.9748849 c 0,0.171228 -0.13785,0.309076 -0.30908,0.309076 l -0.38634,0 c -0.17123,0 -0.30908,-0.137848 -0.30908,-0.309076 l 0,-24.9748849 c 0,-0.1712281 0.13785,-0.3090759 0.30908,-0.3090759 z"
     id="rect70" />
  <path
     d="m 147.75067,32.413301 c 1.73083,0 3.36893,0.896323 3.36893,2.812588 0,2.225352 -1.73083,3.739822 -3.18349,4.605232 -1.11267,0.64905 -2.34897,1.11267 -3.61618,1.11267 -1.73083,0 -3.36893,-0.89632 -3.36893,-2.81259 0,-2.225351 1.73082,-3.739818 3.18348,-4.605232 1.11267,-0.649052 2.34898,-1.112668 3.61619,-1.112668 z"
     id="path72"
     style="fill:#000000;stroke:#000000;stroke-opacity:1"
     inkscape:connector-curvature="0" />
  <path
     d="m 154.59825,32.815099 c 0,-0.958141 0.77269,-1.730829 1.73082,-1.730829 0.95814,0 1.73083,0.772688 1.73083,1.730829 0,0.958141 -0.77269,1.730829 -1.73083,1.730829 -0.95813,0 -1.73082,-0.772688 -1.73082,-1.730829 z"
     id="path74"
     style="fill:#000000;stroke:#000000;stroke-opacity:1"
     inkscape:connector-curvature="0" />
  <path
     style="fill:#000000;stroke:#000000;stroke-opacity:1"
     d="m 150.42573,9.6343842 0.38634,0 c 0.17123,0 0.30908,0.1378478 0.30908,0.3090759 l 0,24.9748849 c 0,0.171228 -0.13785,0.309076 -0.30908,0.309076 l -0.38634,0 c -0.17123,0 -0.30908,-0.137848 -0.30908,-0.309076 l 0,-24.9748849 c 0,-0.1712281 0.13785,-0.3090759 0.30908,-0.3090759 z"
     id="rect76" />
  <path
     style="fill:#000000;stroke:#000000;stroke-opacity:1"
     d="m 141.2601,49.720024 0.38634,0 c 0.17123,0 0.30908,0.137848 0.30908,0.309076 l 0,17.247985 c 0,0.171228 -0.13785,0.309076 -0.30908,0.309076 l -0.38634,0 c -0.17123,0 -0.30908,-0.137848 -0.30908,-0.309076 l 0,-17.247985 c 0,-0.171228 0.13785,-0.309076 0.30908,-0.309076 z"
     id="rect78" />
  <path
     d="m 250.29436,24.686406 c 1.73082,0 3.36893,0.896307 3.36893,2.812588 0,2.225337 -1.73083,3.739821 -3.18348,4.605235 -1.11269,0.649052 -2.34899,1.112668 -3.6162,1.112668 -1.73081,0 -3.36893,-0.896323 -3.36893,-2.812588 0,-2.225353 1.73083,-3.73982 3.18349,-4.605234 1.11267,-0.649069 2.34897,-1.112669 3.61619,-1.112669 z"
     id="path80"
     style="fill:#000000;stroke:#000000;stroke-opacity:1"
     inkscape:connector-curvature="0" />
  <path
     d="m 85.640306,17.083131 c 0,-0.865415 0.339984,-1.298122 1.236304,-1.298122 1.01995,0 2.410793,0.401799 3.678004,0.958141 l -4.079803,-4.883407 c -0.216353,-0.278168 -0.309077,-0.525429 -0.309077,-0.77269 0,-1.050859 1.545381,-2.0399021 2.688962,-3.0598521 0.772689,-0.679968 1.143582,-1.607195 1.143582,-2.565331 0,-0.741782 -0.247263,-1.514473 -0.772691,-2.132625 L 88.14382,2.0311269 c -0.09273,-0.09273 -0.123635,-0.216354 -0.123635,-0.309077 0,-0.278168 0.27817,-0.463614 0.52543,-0.463614 0.123636,0 0.247261,0.03091 0.339983,0.154544 l 4.667049,5.563367 c 0.216352,0.27817 0.309075,0.52543 0.309075,0.772691 0,1.050857 -1.545381,2.0399 -2.688961,3.0598521 -0.77269,0.679967 -1.143581,1.607195 -1.143581,2.565331 0,0.741782 0.216354,1.514472 0.741782,2.132624 l 2.596238,3.05986 c 0.09273,0.09271 0.123636,0.216345 0.123636,0.309072 0,0.278163 -0.247261,0.494525 -0.494522,0.494525 -0.123635,0 -0.278168,-0.06175 -0.370891,-0.185453 -0.556338,-0.649053 -1.947179,-1.174486 -2.998038,-1.174486 -1.267211,0 -1.638102,0.803596 -1.638102,2.070809 0,1.081759 0.339984,2.287154 0.865413,2.905315 0.154544,0.185436 0,0.401798 -0.185445,0.401798 -0.06182,0 -0.123636,0 -0.185447,-0.06175 -1.390841,-1.669011 -2.843498,-4.574326 -2.843498,-6.243336 z"
     id="path82"
     style="fill:#000000;stroke:#000000;stroke-opacity:1"
     inkscape:connector-curvature="0" />
  <path
     d="m 96.087073,46.259901 c 0,-0.74178 -0.649059,-1.26722 -1.298118,-1.26722 -0.123635,0 -0.24726,0 -0.370891,0.031 -0.958136,0.27818 -2.379886,1.2363 -3.523466,1.9781 -1.143583,0.74178 -2.596238,1.6381 -3.21439,2.41079 -0.216354,0.24725 -0.339984,0.55633 -0.339984,0.86541 0,0.74178 0.649059,1.26722 1.298118,1.26722 0.123635,0 0.247261,0 0.370891,-0.031 0.958136,-0.27818 2.410793,-1.2363 3.554374,-1.9781 1.143582,-0.74178 2.596239,-1.6381 3.214391,-2.41079 0.216354,-0.24725 0.309075,-0.55633 0.309075,-0.86541 z m -1.576287,-2.22534 c 1.452657,0 2.56533,0.64905 2.56533,2.22534 0,0.58725 -0.123635,1.14359 -0.309075,1.73082 -0.370891,1.17449 -0.989043,2.28718 -2.008995,2.96714 -1.669009,1.11266 -3.492557,1.57628 -5.810627,1.57628 -1.452658,0 -2.596238,-0.67996 -2.596238,-2.25624 0,-0.58726 0.154544,-1.1436 0.339982,-1.73083 0.370891,-1.17449 0.958136,-2.28717 1.978088,-2.96714 1.669009,-1.11266 3.523465,-1.54537 5.841535,-1.54537 z"
     id="path84"
     style="fill:#000000;stroke:#000000;stroke-opacity:1"
     inkscape:connector-curvature="0" />
  <path
     d="m 26.344076,28.580754 c 0.123636,0 0.27817,-0.03096 0.4018,-0.03096 4.790678,0 7.912345,3.956182 7.912345,8.066897 0,2.34897 -1.019951,4.75976 -3.307113,6.49059 -0.679967,0.52543 -1.452658,0.86541 -2.256254,1.11267 0.09273,1.08177 0.154544,2.16353 0.154544,3.24529 0,0.58725 -0.03091,1.20541 -0.06182,1.79265 -0.216354,3.70891 -2.781684,7.04693 -6.428781,7.04693 -3.33802,0 -6.026982,-2.71986 -6.026982,-6.08879 0,-1.79265 1.638103,-3.1835 3.461651,-3.1835 1.669011,0 2.936222,1.45267 2.936222,3.1835 0,1.60719 -1.329027,2.93622 -2.936222,2.93622 -0.339984,0 -0.649059,-0.0617 -0.958136,-0.18545 0.803598,1.20539 2.101717,2.00899 3.61619,2.00899 2.967129,0 4.852492,-2.8435 5.037938,-5.90334 0.03091,-0.55634 0.06182,-1.14359 0.06182,-1.69992 0,-0.95814 -0.03091,-1.88537 -0.123635,-2.8435 -0.896322,0.15447 -1.792642,0.24726 -2.750778,0.24726 -5.810629,0 -10.29223,-5.31611 -10.29223,-11.559445 0,-5.470649 4.048896,-9.457723 7.665085,-13.63025 -0.587244,-1.916282 -1.143582,-3.863456 -1.390843,-5.872449 -0.185444,-1.607195 -0.216353,-3.21439 -0.216353,-4.8215851 0,-3.554373 1.699918,-6.923303 4.605233,-9.025019 0.09273,-0.06182 0.216353,-0.09273 0.309076,-0.09273 0.123636,0 0.216352,0 0.309075,0.09273 2.19444,2.596238 4.110712,7.572362 4.110712,11.0649211 0,4.419787 -2.658054,7.881444 -5.563369,11.250375 0.649061,2.101701 1.205397,4.265237 1.730825,6.397864 z m 2.627147,14.372027 c 2.101717,-0.74178 3.492558,-2.93622 3.492558,-5.06883 0,-2.781697 -2.0399,-5.532468 -5.347014,-5.872449 0.741783,3.585276 1.421749,7.139659 1.854456,10.941279 z M 17.009982,35.81314 c 0,4.172531 3.987081,7.634171 8.159607,7.634171 0.865412,0 1.699918,-0.0618 2.534422,-0.18544 -0.432706,-3.92527 -1.143581,-7.572366 -1.947178,-11.250369 -2.4417,0.247255 -3.832543,1.885357 -3.832543,3.678003 0,1.359936 0.772691,2.812586 2.503516,3.801636 0.154545,0.15446 0.216352,0.30907 0.216352,0.46362 0,0.33998 -0.309075,0.67996 -0.679966,0.67996 -0.09273,0 -0.185446,-0.031 -0.278168,-0.0618 -2.472609,-1.32903 -3.61619,-3.55437 -3.61619,-5.717906 0,-2.719861 1.792642,-5.377922 4.945215,-6.088792 -0.432705,-1.792646 -0.896319,-3.616201 -1.421748,-5.408831 -3.307113,3.73982 -6.583319,7.510549 -6.583319,12.455764 z M 27.333119,4.3801039 c -3.059852,1.483565 -5.007029,4.605233 -5.007029,8.0050671 0,2.287163 0.556336,4.110708 1.112673,5.996081 2.472608,-2.998043 4.51251,-6.119711 4.51251,-10.0140671 0,-1.699918 -0.123635,-2.4417 -0.618154,-3.987081 z"
     id="path86"
     style="fill:#000000;stroke:#000000;stroke-opacity:1"
     inkscape:connector-curvature="0" />
  <path
     d="m 43.528702,27.684431 -0.03091,2.0399 0,0.339998 c 0,0.679961 0.03091,1.359922 0.123636,2.0399 1.390841,-1.174503 2.874405,-2.472608 2.874405,-4.296163 0,-1.019958 -0.432705,-2.070809 -1.329026,-2.070809 -0.958136,0 -1.607195,0.927232 -1.638103,1.947174 z m -1.29812,5.532466 -0.370891,-18.390025 c 0.247261,-0.154544 0.556338,-0.247261 0.834506,-0.247261 0.278168,0 0.587244,0.09273 0.834505,0.247261 l -0.216353,10.663131 c 0.772689,-0.649069 1.792641,-1.050867 2.812591,-1.050867 1.607195,0 2.750777,1.483574 2.750777,3.152569 0,2.472624 -2.658054,3.616201 -4.543418,5.223394 -0.463613,0.401798 -0.741783,1.174486 -1.390842,1.174486 -0.401798,0 -0.710875,-0.33998 -0.710875,-0.772688 z"
     id="path88"
     style="fill:#000000;stroke:#000000;stroke-opacity:1"
     inkscape:connector-curvature="0" />
  <path
     d="m 68.85748,28.117138 c -1.514473,0 -2.31807,-1.298121 -2.31807,-2.318063 0,-1.174486 0.834504,-2.379881 2.225347,-2.379881 0.123635,0 0.278168,0 0.432705,0.03096 -0.865412,-1.143577 -2.225347,-1.823539 -3.708911,-1.823539 -3.276206,0 -3.492559,2.256246 -3.492559,5.748812 l 0,1.576284 0,1.576285 c 0,3.492566 0.216353,5.779715 3.492559,5.779715 2.472608,0 4.296156,-2.163514 4.883401,-4.66703 0.06182,-0.216362 0.216353,-0.309088 0.370891,-0.309088 0.185446,0 0.401798,0.123668 0.401798,0.370905 0,2.905315 -3.245297,5.377923 -5.65609,5.377923 -2.101716,0 -4.234342,-0.64907 -5.686997,-2.163536 -1.514474,-1.576284 -2.039902,-3.770729 -2.039902,-5.965174 0,-2.194428 0.525428,-4.388872 2.039902,-5.965157 1.452655,-1.514483 3.585281,-2.132626 5.686997,-2.132626 2.688961,0 4.945215,1.978082 5.408829,4.636143 0.03091,0.154462 0.03091,0.278163 0.03091,0.401798 0,1.236304 -0.927228,2.225337 -2.070809,2.225337 z"
     id="path90"
     style="fill:#000000;stroke:#000000;stroke-opacity:1"
     inkscape:connector-curvature="0" />
  <path
     style="fill:#000000;stroke:#000000;stroke-opacity:1"
     d="m 86.660257,50.288689 0.386345,0 c 0.171228,0 0.309076,0.137848 0.309076,0.309076 l 0,16.679285 c 0,0.171228 -0.137848,0.309076 -0.309076,0.309076 l -0.386345,0 c -0.171228,0 -0.309076,-0.137848 -0.309076,-0.309076 l 0,-16.679285 c 0,-0.171228 0.137848,-0.309076 0.309076,-0.309076 z"
     id="rect92" />
  <path
     d="m 221.57966,24.686406 c 1.73081,0 3.36891,0.896307 3.36891,2.812588 0,2.225337 -1.73081,3.739821 -3.18348,4.605235 -1.11266,0.649052 -2.34897,1.112668 -3.61618,1.112668 -1.73083,0 -3.36893,-0.896323 -3.36893,-2.812588 0,-2.225353 1.73083,-3.73982 3.18348,-4.605234 1.11268,-0.649069 2.34899,-1.112669 3.6162,-1.112669 z"
     id="path94"
     style="fill:#000000;stroke:#000000;stroke-opacity:1"
     inkscape:connector-curvature="0" />
  <path
     d="m 221.57966,32.413301 c 1.73081,0 3.36891,0.896323 3.36891,2.812588 0,2.225352 -1.73081,3.739822 -3.18348,4.605232 -1.11266,0.64905 -2.34897,1.11267 -3.61618,1.11267 -1.73083,0 -3.36893,-0.89632 -3.36893,-2.81259 0,-2.225351 1.73083,-3.739818 3.18348,-4.605232 1.11268,-0.649052 2.34899,-1.112668 3.6162,-1.112668 z"
     id="path96"
     style="fill:#000000;stroke:#000000;stroke-opacity:1"
     inkscape:connector-curvature="0" />
  <path
     style="fill:#000000;stroke:#000000;stroke-opacity:1"
     d="m 224.25469,3.1955721 0.38635,0 c 0.17123,0 0.30907,0.1378479 0.30907,0.309076 l 0,23.6868119 c 0,0.171228 -0.13784,0.309076 -0.30907,0.309076 l -0.38635,0 c -0.17122,0 -0.30907,-0.137848 -0.30907,-0.309076 l 0,-23.6868119 c 0,-0.1712281 0.13785,-0.309076 0.30907,-0.309076 z"
     id="rect98" />
  <path
     style="fill:#000000;stroke:#000000;stroke-opacity:1"
     d="m 215.08906,38.129677 0.38634,0 c 0.17123,0 0.30908,0.137848 0.30908,0.309076 l 0,21.111435 c 0,0.171228 -0.13785,0.309076 -0.30908,0.309076 l -0.38634,0 c -0.17123,0 -0.30908,-0.137848 -0.30908,-0.309076 l 0,-21.111435 c 0,-0.171228 0.13785,-0.309076 0.30908,-0.309076 z"
     id="rect100" />
  <path
     d="m 195.676,6.0800219 c 0,6.1197051 6.45968,10.3540401 6.45968,16.4737571 0,2.194428 -0.49452,4.357964 -1.29812,6.397865 -0.15463,0.24727 -0.37089,0.370889 -0.58725,0.370889 -0.4018,0 -0.8036,-0.339981 -0.71087,-0.834505 0.8036,-1.885357 1.29812,-3.894348 1.29812,-5.934249 0,-3.214403 -2.93622,-6.428789 -5.16156,-8.746857 l -0.49452,0 0,-7.7269001 0.49452,0 z"
     id="path102"
     style="fill:#000000;stroke:#000000;stroke-opacity:1"
     inkscape:connector-curvature="0" />
  <path
     style="fill:#000000;stroke:#000000;stroke-opacity:1"
     d="m 171.90652,38.129677 0.38634,0 c 0.17123,0 0.30908,0.137848 0.30908,0.309076 l 0,21.111435 c 0,0.171228 -0.13785,0.309076 -0.30908,0.309076 l -0.38634,0 c -0.17123,0 -0.30908,-0.137848 -0.30908,-0.309076 l 0,-21.111435 c 0,-0.171228 0.13785,-0.309076 0.30908,-0.309076 z"
     id="rect104" />
  <path
     d="m 178.39709,32.413301 c 1.73083,0 3.36893,0.896323 3.36893,2.812588 0,2.225352 -1.73083,3.739822 -3.18347,4.605232 -1.11267,0.64905 -2.34898,1.11267 -3.61619,1.11267 -1.73083,0 -3.36893,-0.89632 -3.36893,-2.81259 0,-2.225351 1.73083,-3.739818 3.18348,-4.605232 1.11267,-0.649052 2.34899,-1.112668 3.61618,-1.112668 z"
     id="path106"
     style="fill:#000000;stroke:#000000;stroke-opacity:1"
     inkscape:connector-curvature="0" />
  <path
     style="fill:#000000;stroke:#000000;stroke-opacity:1"
     d="m 194.98058,5.7709279 0.38635,0 c 0.17123,0 0.30908,0.1378479 0.30908,0.309076 l 0,24.9748851 c 0,0.171228 -0.13785,0.309076 -0.30908,0.309076 l -0.38635,0 c -0.17122,0 -0.30907,-0.137848 -0.30907,-0.309076 l 0,-24.9748851 c 0,-0.1712281 0.13785,-0.309076 0.30907,-0.309076 z"
     id="rect108" />
  <path
     d="m 192.30552,28.549845 c 1.73083,0 3.36893,0.896323 3.36893,2.812588 0,2.225354 -1.73083,3.739821 -3.18349,4.605235 -1.11267,0.649073 -2.34897,1.112683 -3.61619,1.112683 -1.73082,0 -3.36893,-0.89632 -3.36893,-2.812603 0,-2.225337 1.73083,-3.73982 3.1835,-4.605234 1.11267,-0.649053 2.34897,-1.112669 3.61618,-1.112669 z"
     id="path110"
     style="fill:#000000;stroke:#000000;stroke-opacity:1"
     inkscape:connector-curvature="0" />
</svg>
